<svg width="2000" height="324" xmlns="http://www.w3.org/2000/svg">
  <!-- Background -->
  <rect width="2000" height="324" fill="#f5f5f5"/>

  <!-- Company 1 -->
  <rect x="50" y="112" width="150" height="100" rx="10" fill="#5F192B"/>
  <text x="125" y="170" font-family="Arial, sans-serif" font-size="18" fill="#C2A580" text-anchor="middle">Company 1</text>

  <!-- Company 2 -->
  <rect x="250" y="112" width="150" height="100" rx="10" fill="#5F192B"/>
  <text x="325" y="170" font-family="Arial, sans-serif" font-size="18" fill="#C2A580" text-anchor="middle">Company 2</text>

  <!-- Company 3 -->
  <rect x="450" y="112" width="150" height="100" rx="10" fill="#5F192B"/>
  <text x="525" y="170" font-family="Arial, sans-serif" font-size="18" fill="#C2A580" text-anchor="middle">Company 3</text>

  <!-- Company 4 -->
  <rect x="650" y="112" width="150" height="100" rx="10" fill="#5F192B"/>
  <text x="725" y="170" font-family="Arial, sans-serif" font-size="18" fill="#C2A580" text-anchor="middle">Company 4</text>

  <!-- Company 5 -->
  <rect x="850" y="112" width="150" height="100" rx="10" fill="#5F192B"/>
  <text x="925" y="170" font-family="Arial, sans-serif" font-size="18" fill="#C2A580" text-anchor="middle">Company 5</text>

  <!-- Company 1 (duplicate for seamless loop) -->
  <rect x="1050" y="112" width="150" height="100" rx="10" fill="#5F192B"/>
  <text x="1125" y="170" font-family="Arial, sans-serif" font-size="18" fill="#C2A580" text-anchor="middle">Company 1</text>

  <!-- Company 2 (duplicate) -->
  <rect x="1250" y="112" width="150" height="100" rx="10" fill="#5F192B"/>
  <text x="1325" y="170" font-family="Arial, sans-serif" font-size="18" fill="#C2A580" text-anchor="middle">Company 2</text>

  <!-- Company 3 (duplicate) -->
  <rect x="1450" y="112" width="150" height="100" rx="10" fill="#5F192B"/>
  <text x="1525" y="170" font-family="Arial, sans-serif" font-size="18" fill="#C2A580" text-anchor="middle">Company 3</text>

  <!-- Company 4 (duplicate) -->
  <rect x="1650" y="112" width="150" height="100" rx="10" fill="#5F192B"/>
  <text x="1725" y="170" font-family="Arial, sans-serif" font-size="18" fill="#C2A580" text-anchor="middle">Company 4</text>

  <!-- Company 5 (duplicate) -->
  <rect x="1850" y="112" width="150" height="100" rx="10" fill="#5F192B"/>
  <text x="1925" y="170" font-family="Arial, sans-serif" font-size="18" fill="#C2A580" text-anchor="middle">Company 5</text>
</svg>
