<?xml version="1.0" encoding="UTF-8"?>
<svg width="62px" height="62px" viewBox="0 0 62 62" version="1.1" xmlns="http://www.w3.org/2000/svg" xmlns:xlink="http://www.w3.org/1999/xlink">
    <title>Frame 3</title>
    <defs>
        <path d="M16,0 L46,0 C54.836556,0 62,7.163444 62,16 L62,46 C62,54.836556 54.836556,62 46,62 L16,62 C7.163444,62 0,54.836556 0,46 L0,16 C0,7.163444 7.163444,1.77635684e-15 16,0 Z" id="path-1"></path>
    </defs>
    <g id="Frame-3" stroke="none" fill="none" xlink:href="#path-1" fill-rule="evenodd">
        <path stroke="#000000" stroke-width="1" d="M46,0.5 C50.2802068,0.5 54.1552068,2.23489659 56.9601551,5.03984489 C59.7651034,7.84479319 61.5,11.7197932 61.5,16 L61.5,46 C61.5,50.2802068 59.7651034,54.1552068 56.9601551,56.9601551 C54.1552068,59.7651034 50.2802068,61.5 46,61.5 L16,61.5 C11.7197932,61.5 7.84479319,59.7651034 5.03984489,56.9601551 C2.23489659,54.1552068 0.5,50.2802068 0.5,46 L0.5,16 C0.5,11.7197932 2.23489659,7.84479319 5.03984489,5.03984489 C7.84479319,2.23489659 11.7197932,0.5 16,0.5 L46,0.5 Z" stroke-linejoin="square" fill="#FFFFFF"></path>
        <g id="60-symbol" transform="translate(6, 15)" fill="#000000">
            <path d="M42,0 C46.418278,0 50,3.581722 50,8 L50,25 C50,29.418278 46.418278,33 42,33 L34,33 C29.581722,33 26,29.418278 26,25 L26,8 C26,3.581722 29.581722,0 34,0 L42,0 Z M38,1 C35.790861,1 34,2.790861 34,5 L34,28 C34,30.209139 35.790861,32 38,32 C40.209139,32 42,30.209139 42,28 L42,5 C42,2.790861 40.209139,1 38,1 Z M24,25 C24,29.418278 20.418278,33 16,33 L8,33 C3.581722,33 0,29.418278 0,25 L0,8 C0,3.581722 3.581722,0 8,0 L16,0 C20.418278,0 24,3.581722 24,8 L24,12 L20,12 L19.8003597,11.9951047 C17.7501057,11.8943297 16.1056703,10.2498943 16.0048953,8.19964034 L16,8.039 L16,5 C16,2.790861 14.209139,1 12,1 C9.790861,1 8,2.790861 8,5 L8,10 C8,12.209139 9.790861,14 12,14 L16,14 C20.3349143,14 23.8645429,17.4478378 23.9961932,21.7508207 L24,22 L24,25 Z M12,15 C9.790861,15 8,16.790861 8,19 L8,28 C8,30.209139 9.790861,32 12,32 C14.209139,32 16,30.209139 16,28 L16,19 C16,16.790861 14.209139,15 12,15 Z M24,8 L23.9951047,8.19964034 C23.8910789,10.3160315 22.1421954,12 20,12 L24,12 L24,8 Z" id="Shape"></path>
        </g>
    </g>
</svg>