<svg xmlns="http://www.w3.org/2000/svg" width="80" height="78" viewBox="0 0 80 78">
  <g fill="#000000">
    <!-- WhatsApp phone shape -->
    <path d="M40 8c-16.5 0-30 13.5-30 30 0 5.2 1.4 10.1 3.8 14.3L8 68l16.2-5.5c4.1 2.2 8.7 3.5 13.8 3.5 16.5 0 30-13.5 30-30S56.5 8 40 8zm0 54c-4.5 0-8.7-1.2-12.3-3.3l-0.9-0.5-8.5 2.9 2.9-8.3-0.6-0.9C18.2 47.9 17 43.1 17 38c0-12.7 10.3-23 23-23s23 10.3 23 23-10.3 23-23 23z"/>
    <!-- Message bubble inside -->
    <path d="M51 33c-0.5-3.5-2.5-6.5-5.5-8.5-2.5-1.5-5.5-2-8.5-1.5-3.5 0.5-6.5 2.5-8.5 5.5-1.5 2.5-2 5.5-1.5 8.5 0.5 2.5 1.5 4.5 3 6l0.5 0.5v4l4-1.5 0.5 0.5c2.5 1.5 5.5 2 8.5 1.5 3.5-0.5 6.5-2.5 8.5-5.5 1.5-2.5 2-5.5 1.5-8.5z"/>
  </g>
</svg>
