<svg xmlns="http://www.w3.org/2000/svg" width="20" height="20" viewBox="0 0 24 24" fill="none" stroke="#4B5563" stroke-width="1.8" stroke-linecap="round" stroke-linejoin="round">
  <!-- chat bubble circle with small tail -->
  <path d="M21 11.5c0 4.694-3.806 8.5-8.5 8.5-1.22 0-2.382-.254-3.424-.712l-3.576.712.9-3.353A8.45 8.45 0 0 1 4.5 11.5C4.5 6.806 8.306 3 13 3s8 3.806 8 8.5z"/>
  <!-- phone handset simplified -->
  <path d="M9.2 7.8c-.3-.7-.7-.8-1.1-.8h-.8c-.3 0-.8.1-1.2.6-.4.4-1.2 1.4-1.2 3.4s1.4 3.9 1.6 4.2c.2.3 2.8 4.4 7 6 .9.3 1.6.5 2.2.6.6.1 1.3.1 1.7 0 .5-.1 1.7-.7 2-1.5.3-.7.3-1.3.2-1.6 0-.3-.2-.4-.6-.6-.4-.2-1.8-.9-2.1-1-.3-.1-.5 0-.7.3-.2.3-.9 1.3-1.1 1.5-.2.2-.4.2-.7.1-.3-.1-1.5-.6-2.8-1.7-1-.9-1.8-2-2-2.3-.2-.4 0-.6.2-.8.2-.2.5-.6.7-.9.2-.3.3-.6.2-.9s-.8-2.3-1.1-2.9z"/>
</svg>
