<svg xmlns="http://www.w3.org/2000/svg" width="80" height="78" viewBox="0 0 80 78">
  <g fill="none" stroke="#000000" stroke-width="6">
    <!-- Speech bubble circle -->
    <circle cx="40" cy="35" r="20" fill="none"/>

    <!-- Speech bubble tail -->
    <path d="M 25 50 L 20 62 L 30 54" stroke-linejoin="round" stroke-linecap="round"/>

    <!-- Phone handset inside -->
    <g stroke-width="4">
      <path d="M 32 30 C 32 28, 33 27, 34 27 L 36 27 C 37 27, 38 28, 38 29 C 38 31, 37 32, 36 33 C 35 34, 34 35, 35 36 C 36 37, 37 38, 38 39 C 39 40, 40 41, 41 42 C 42 43, 43 44, 44 43 C 45 42, 46 41, 47 42 C 48 43, 49 44, 48 45 L 48 47 C 48 48, 47 49, 46 49 C 44 49, 43 48, 42 47"
            stroke-linecap="round" stroke-linejoin="round" fill="none"/>
    </g>
  </g>
</svg>
