<svg xmlns="http://www.w3.org/2000/svg" viewBox="0 0 32 32"><path fill="#25D366" d="M16 3C9.383 3 4 8.383 4 15c0 2.123.555 4.113 1.523 5.852L4 29l8.348-1.5A11.87 11.87 0 0 0 16 27c6.617 0 12-5.383 12-12S22.617 3 16 3z"/><path fill="#fff" d="M24.3 20.5c-.3.8-1.7 1.6-2.4 1.7-.6.1-1.3.1-2.1-.1-.5-.1-1.2-.4-2.1-.8-3.6-1.6-5.9-5.2-6.1-5.4-.2-.2-1.5-2-1.5-3.8s1-2.6 1.4-3c.3-.3.7-.4 1-.4h.7c.2 0 .6 0 .9.7.3.8 1.1 2.8 1.2 3-.1.2-.2.4-.4.6l-.3.3c-.1.1-.2.2-.1.4 0 .1.4 1 1 1.7.7.8 1.9 1.7 2.1 1.8.2.1.3.1.5 0 .1-.2.6-.7.8-1 .2-.3.4-.2.6-.1.2.1 1.5.7 1.7.8.3.1.4.1.5.3.1.2.1 1.1-.2 1.9z"/></svg>