<?xml version="1.0" encoding="UTF-8"?>
<svg width="128px" height="128px" viewBox="0 0 128 128" version="1.1" xmlns="http://www.w3.org/2000/svg">
    <title>chess-icon-content</title>
    <g stroke="none" fill="none">
        <!-- Trophy base -->
        <rect x="48" y="84" width="32" height="8" stroke="#000000" stroke-width="2" fill="#FFFFFF"/>

        <!-- Trophy stem -->
        <rect x="58" y="72" width="12" height="12" stroke="#000000" stroke-width="2" fill="#FFFFFF"/>

        <!-- Trophy cup -->
        <path d="M 40,36 L 40,52 C 40,60 48,68 64,68 C 80,68 88,60 88,52 L 88,36 Z"
              stroke="#000000" stroke-width="2" fill="#000000"/>

        <!-- Trophy rim -->
        <ellipse cx="64" cy="36" rx="24" ry="6" stroke="#000000" stroke-width="2" fill="#FFFFFF"/>

        <!-- Trophy handles -->
        <path d="M 36,40 C 32,40 28,44 28,48 C 28,52 32,56 36,56"
              stroke="#000000" stroke-width="2" fill="none"/>
        <path d="M 92,40 C 96,40 100,44 100,48 C 100,52 96,56 92,56"
              stroke="#000000" stroke-width="2" fill="none"/>

        <!-- Number on trophy -->
        <text x="64" y="54" font-family="Arial, sans-serif" font-size="16" font-weight="bold" fill="#FFFFFF" text-anchor="middle">500+</text>
    </g>
</svg>
