<?xml version="1.0" encoding="UTF-8"?>
<svg width="128px" height="128px" viewBox="0 0 128 128" version="1.1" xmlns="http://www.w3.org/2000/svg" xmlns:xlink="http://www.w3.org/1999/xlink">
    <title>galshir-icon-characterizing</title>
    <g id="galshir-icon-characterizing" stroke="none" fill="none" fill-rule="evenodd" stroke-width="1">
        <path d="M87,84 L70,84 C68.8954305,84 68,84.8954305 68,86 C68,87.1045695 68.8954305,88 70,88 L74,88 C75.1045695,88 76,88.8954305 76,90 C76,91.1045695 75.1045695,92 74,92 L31,92 C29.8954305,92 29,91.1045695 29,90 C29,88.8954305 29.8954305,88 31,88 L43,88 C44.1045695,88 45,87.1045695 45,86 C45,84.8954305 44.1045695,84 43,84 L40,84 C38.8954305,84 38,83.1045695 38,82 C38,80.8954305 38.8954305,80 40,80 L87,80 C88.1045695,80 89,80.8954305 89,82 C89,83.1045695 88.1045695,84 87,84 Z" id="Path" stroke="#000000" fill="#000000"></path>
        <g id="Group" transform="translate(69.6464, 55.6464) rotate(-135) translate(-69.6464, -55.6464)translate(53.1464, 24.6464)" stroke="#000000">
            <path d="M0,32 L0,32 L0,32 L32,32 C32,34.3887612 30.4714446,36.5095185 28.2052668,37.2649111 L25.4701779,38.1766074 C22.2034408,39.2655197 20,42.3226305 20,45.7660738 L20,58 C20,60.209139 18.209139,62 16,62 C13.790861,62 12,60.209139 12,58 L12,45.7660738 C12,42.3226305 9.79655924,39.2655197 6.52982213,38.1766074 L3.79473319,37.2649111 C1.52855537,36.5095185 8.8817842e-16,34.3887612 0,32 Z" id="Rectangle" fill="#FFFFFF" stroke-linejoin="round"></path>
            <polygon id="Rectangle-2" fill="#000000" points="3.63797881e-12 24 32 24 32 32 3.63797881e-12 32"></polygon>
            <polygon id="Rectangle-2" fill="#FFFFFF" stroke-linejoin="round" points="3.63820085e-12 0 5 0 7 2 9 0 17 0 20 5 23 0 32 0 32 24 3.63820085e-12 24"></polygon>
        </g>
    </g>
</svg>