<?xml version="1.0" encoding="UTF-8"?>
<svg width="128px" height="128px" viewBox="0 0 128 128" version="1.1" xmlns="http://www.w3.org/2000/svg" xmlns:xlink="http://www.w3.org/1999/xlink">
    <title>galshir-icon-researching</title>
    <g id="galshir-icon-researching" stroke="none" fill="none" fill-rule="evenodd" stroke-width="1">
        <g id="Group" transform="translate(64, 67) rotate(45) translate(-64, -67)translate(42, 31)" stroke="#000000">
            <path d="M10.5056911,38.4044229 L10.4519642,38.5592631 C10.2575699,39.0770484 9.95209315,39.5626255 9.53553391,39.9791847 C7.97343674,41.5412819 5.44077682,41.5412819 3.87867966,39.9791847 C2.31658249,38.4170876 2.31658249,35.8844276 3.87867966,34.3223305 C4.36169999,33.8393101 4.93751826,33.5056458 5.54874586,33.3213376 C6.88640381,35.2962081 8.56716766,37.0190921 10.5056911,38.4044229 Z" id="Combined-Shape" fill="#000000"></path>
            <path d="M22.1213203,2.12132034 C33.1670153,2.12132034 42.1213203,11.0756253 42.1213203,22.1213203 C42.1213203,33.1670153 33.1670153,42.1213203 22.1213203,42.1213203 C11.0756253,42.1213203 2.12132034,33.1670153 2.12132034,22.1213203 C2.12132034,11.0756253 11.0756253,2.12132034 22.1213203,2.12132034 Z M22.1213203,6.12132034 C13.2847643,6.12132034 6.12132034,13.2847643 6.12132034,22.1213203 C6.12132034,30.9578763 13.2847643,38.1213203 22.1213203,38.1213203 C30.9578763,38.1213203 38.1213203,30.9578763 38.1213203,22.1213203 C38.1213203,13.2847643 30.9578763,6.12132034 22.1213203,6.12132034 Z" id="Combined-Shape" fill="#FFFFFF" stroke-linejoin="round"></path>
            <circle id="Oval-2" fill="#000000" transform="translate(-1.0711, 44.9289) rotate(-45) translate(1.0711, -44.9289)" cx="-1.07106781" cy="44.9289322" r="4"></circle>
            <circle id="Oval-2" fill="#000000" transform="translate(18.0208, 25.837) rotate(-45) translate(-18.0208, -25.837)" cx="18.0208153" cy="25.8370491" r="8"></circle>
            <path d="M22.1213203,42.1213203 C22.7550002,42.1213203 23.3817968,42.09185 24.0004145,42.034205 L24.0006053,50.4679248 C23.3979964,50.168414 22.7187352,50 22.0001387,50 C21.2814944,50 20.6021905,50.1684364 19.9995517,50.4679846 L19.9992109,42.010069 C20.6965229,42.0836114 21.4045179,42.1213203 22.1213203,42.1213203 Z" id="Combined-Shape" fill="#FFFFFF" stroke-linejoin="round"></path>
            <path d="M22,50 C24.209139,50 26,51.790861 26,54 L26,63.7573593 C26,65.9664983 24.209139,67.7573593 22,67.7573593 C19.790861,67.7573593 18,65.9664983 18,63.7573593 L18,54 C18,51.790861 19.790861,50 22,50 Z" id="Rectangle" fill="#000000"></path>
        </g>
    </g>
</svg>