<?xml version="1.0" encoding="UTF-8"?>
<svg width="128px" height="128px" viewBox="0 0 128 128" version="1.1" xmlns="http://www.w3.org/2000/svg" xmlns:xlink="http://www.w3.org/1999/xlink">
    <title>galshir-icon-presenting</title>
    <g id="galshir-icon-presenting" stroke="none" fill="none" fill-rule="evenodd" stroke-width="1">
        <path d="M61.25,44.5533009 C67.0489899,44.5533009 71.75,49.254311 71.75,55.0533009 L71.75,59.5523009 L76.25,59.5533009 C82.0489899,59.5533009 86.75,64.254311 86.75,70.0533009 C86.75,75.8522907 82.0489899,80.5533009 76.25,80.5533009 L71.75,80.5523009 L50.75,80.5533009 L50.75,55.0533009 C50.75,49.254311 55.4510101,44.5533009 61.25,44.5533009 Z" id="Combined-Shape" stroke="#000000" fill="#000000" transform="translate(65, 66.3033) rotate(-45) translate(-65, -66.3033)"></path>
        <path d="M68.042769,83.2934628 L64.7114178,86.1702089 C64.153772,86.6517569 63.311339,86.5900674 62.8297911,86.0324216 C62.3973024,85.5315878 62.3973024,84.789416 62.8297911,84.2885822 L65.7065372,80.957231 C70.8935221,74.9505598 70.8935221,66.0494402 65.7065372,60.042769 L62.8297911,56.7114178 C62.3482431,56.153772 62.4099326,55.311339 62.9675784,54.8297911 C63.4684122,54.3973024 64.210584,54.3973024 64.7114178,54.8297911 L68.042769,57.7065372 C74.0494402,62.8935221 82.9505598,62.8935221 88.957231,57.7065372 L92.2885822,54.8297911 C92.846228,54.3482431 93.688661,54.4099326 94.1702089,54.9675784 C94.6026976,55.4684122 94.6026976,56.210584 94.1702089,56.7114178 L91.2934628,60.042769 C86.1064779,66.0494402 86.1064779,74.9505598 91.2934628,80.957231 L94.1702089,84.2885822 C94.6517569,84.846228 94.5900674,85.688661 94.0324216,86.1702089 C93.5315878,86.6026976 92.789416,86.6026976 92.2885822,86.1702089 L88.957231,83.2934628 C82.9505598,78.1064779 74.0494402,78.1064779 68.042769,83.2934628 Z" id="Star" stroke="#000000" fill="#FFFFFF" transform="translate(78.5, 70.5) rotate(45) translate(-78.5, -70.5)"></path>
        <path d="M44.2860148,51.8840975 L42.6057089,53.3351045 C42.326886,53.5758784 41.9056695,53.5450337 41.6648955,53.2662108 C41.4486512,53.0157939 41.4486512,52.644708 41.6648955,52.3942911 L43.1159025,50.7139852 C45.702138,47.7190533 45.702138,43.2809467 43.1159025,40.2860148 L41.6648955,38.6057089 C41.4241216,38.326886 41.4549663,37.9056695 41.7337892,37.6648955 C41.9842061,37.4486512 42.355292,37.4486512 42.6057089,37.6648955 L44.2860148,39.1159025 C47.2809467,41.702138 51.7190533,41.702138 54.7139852,39.1159025 L56.3942911,37.6648955 C56.673114,37.4241216 57.0943305,37.4549663 57.3351045,37.7337892 C57.5513488,37.9842061 57.5513488,38.355292 57.3351045,38.6057089 L55.8840975,40.2860148 C53.297862,43.2809467 53.297862,47.7190533 55.8840975,50.7139852 L57.3351045,52.3942911 C57.5758784,52.673114 57.5450337,53.0943305 57.2662108,53.3351045 C57.0157939,53.5513488 56.644708,53.5513488 56.3942911,53.3351045 L54.7139852,51.8840975 C51.7190533,49.297862 47.2809467,49.297862 44.2860148,51.8840975 Z" id="Star" stroke="#000000" fill="#FFFFFF" transform="translate(49.5, 45.5) rotate(45) translate(-49.5, -45.5)"></path>
    </g>
</svg>